<svg width="2034" height="1617" viewBox="0 0 2034 1617" fill="none" xmlns="http://www.w3.org/2000/svg">
<path d="M1505.54 101.151C1548.81 68.8052 1525.93 0.00022671 1471.91 0.000217683L564.016 8.70732e-05C509.93 7.80354e-05 487.096 68.9443 530.49 101.229L819.445 316.208C829.135 323.418 840.892 327.312 852.971 327.312H1184.36C1196.48 327.312 1208.28 323.389 1217.99 316.13L1505.54 101.151Z" fill="url(#paint0_linear_203_3)"/>
<path d="M95.7504 0C107.709 1.99833e-06 119.356 3.81701 128.995 10.8953L819.486 517.954C829.125 525.033 840.772 528.85 852.731 528.85H1184.61C1196.58 528.85 1208.24 525.024 1217.89 517.932L1907.36 10.9176C1917.01 3.82536 1928.66 0.000302756 1940.64 0.000304756H1976.85C2007.86 0.00030994 2033.01 25.1468 2033.01 56.1665V1559.88C2033.01 1590.9 2007.86 1616.05 1976.85 1616.05H1561.03C1543.47 1616.05 1526.92 1607.84 1516.3 1593.85L1345.61 1369.05C1338.2 1359.28 1334.18 1347.35 1334.18 1335.08V1269.42C1334.18 1238.4 1359.33 1213.25 1390.35 1213.25H1651.69C1682.71 1213.25 1707.86 1188.1 1707.86 1157.08V798.675C1707.86 767.655 1682.71 742.509 1651.69 742.509H1551.48C1539.57 742.509 1527.97 746.296 1518.35 753.322L1398.54 840.844L1227.45 958.711C1212.24 969.193 1203.15 986.487 1203.15 1004.96V1322.09C1203.15 1353.11 1178 1378.25 1146.98 1378.25H890.487C859.467 1378.25 834.321 1353.11 834.321 1322.09V1004.11C834.321 986.109 825.694 969.199 811.12 958.634L648.632 840.844L528.824 753.322C519.206 746.296 507.604 742.509 495.693 742.509H400.334C369.315 742.509 344.168 767.655 344.168 798.675V1157.08C344.168 1188.1 369.315 1213.25 400.334 1213.25H647.079C678.098 1213.25 703.245 1238.4 703.245 1269.42V1335.83C703.245 1347.64 699.526 1359.14 692.615 1368.71L530.837 1592.76C520.278 1607.39 503.338 1616.05 485.301 1616.05L61.1916 1616.05C30.2374 1616.05 5.11826 1591.01 5.02579 1560.05L0.533459 56.334C0.440593 25.2488 25.6142 -5.19439e-06 56.6994 0H95.7504Z" fill="url(#paint1_linear_203_3)"/>
<defs>
<linearGradient id="paint0_linear_203_3" x1="0.533439" y1="-0.000309965" x2="2033.01" y2="1616.05" gradientUnits="userSpaceOnUse">
<stop stop-color="#53C2C2"/>
<stop offset="1" stop-color="#00945F"/>
</linearGradient>
<linearGradient id="paint1_linear_203_3" x1="0.533439" y1="-0.000309965" x2="2033.01" y2="1616.05" gradientUnits="userSpaceOnUse">
<stop stop-color="#53C2C2"/>
<stop offset="1" stop-color="#00945F"/>
</linearGradient>
</defs>
</svg>
